<?xml version="1.0" encoding="UTF-8"?>
<!-- https://savemybook.today/ · QR version 3 · ECC Q · quiet zone 4 modules -->
<svg xmlns="http://www.w3.org/2000/svg" viewBox="0 0 37 37" width="370" height="370" shape-rendering="crispEdges">
  <rect width="37" height="37" fill="#FFFFFF"/>
  <path d="M4 4h7v1h-7zM14 4h1v1h-1zM16 4h2v1h-2zM19 4h2v1h-2zM26 4h7v1h-7zM4 5h1v1h-1zM10 5h1v1h-1zM12 5h3v1h-3zM18 5h1v1h-1zM20 5h1v1h-1zM22 5h1v1h-1zM26 5h1v1h-1zM32 5h1v1h-1zM4 6h1v1h-1zM6 6h3v1h-3zM10 6h1v1h-1zM12 6h1v1h-1zM14 6h1v1h-1zM17 6h4v1h-4zM23 6h1v1h-1zM26 6h1v1h-1zM28 6h3v1h-3zM32 6h1v1h-1zM4 7h1v1h-1zM6 7h3v1h-3zM10 7h1v1h-1zM13 7h1v1h-1zM16 7h1v1h-1zM18 7h1v1h-1zM21 7h1v1h-1zM24 7h1v1h-1zM26 7h1v1h-1zM28 7h3v1h-3zM32 7h1v1h-1zM4 8h1v1h-1zM6 8h3v1h-3zM10 8h1v1h-1zM13 8h1v1h-1zM15 8h1v1h-1zM17 8h1v1h-1zM19 8h2v1h-2zM23 8h1v1h-1zM26 8h1v1h-1zM28 8h3v1h-3zM32 8h1v1h-1zM4 9h1v1h-1zM10 9h1v1h-1zM14 9h1v1h-1zM16 9h1v1h-1zM20 9h5v1h-5zM26 9h1v1h-1zM32 9h1v1h-1zM4 10h7v1h-7zM12 10h1v1h-1zM14 10h1v1h-1zM16 10h1v1h-1zM18 10h1v1h-1zM20 10h1v1h-1zM22 10h1v1h-1zM24 10h1v1h-1zM26 10h7v1h-7zM14 11h1v1h-1zM16 11h5v1h-5zM24 11h1v1h-1zM5 12h3v1h-3zM9 12h2v1h-2zM13 12h1v1h-1zM15 12h2v1h-2zM18 12h1v1h-1zM22 12h2v1h-2zM30 12h2v1h-2zM7 13h3v1h-3zM11 13h2v1h-2zM14 13h2v1h-2zM17 13h1v1h-1zM20 13h1v1h-1zM22 13h1v1h-1zM24 13h5v1h-5zM30 13h1v1h-1zM32 13h1v1h-1zM4 14h2v1h-2zM7 14h2v1h-2zM10 14h1v1h-1zM13 14h1v1h-1zM15 14h2v1h-2zM21 14h4v1h-4zM26 14h2v1h-2zM29 14h1v1h-1zM31 14h1v1h-1zM4 15h4v1h-4zM11 15h2v1h-2zM16 15h1v1h-1zM19 15h2v1h-2zM22 15h1v1h-1zM24 15h1v1h-1zM27 15h1v1h-1zM29 15h1v1h-1zM32 15h1v1h-1zM5 16h1v1h-1zM8 16h3v1h-3zM14 16h3v1h-3zM18 16h1v1h-1zM21 16h1v1h-1zM23 16h1v1h-1zM25 16h1v1h-1zM27 16h1v1h-1zM30 16h3v1h-3zM6 17h1v1h-1zM9 17h1v1h-1zM11 17h1v1h-1zM14 17h1v1h-1zM18 17h4v1h-4zM23 17h1v1h-1zM26 17h2v1h-2zM29 17h2v1h-2zM32 17h1v1h-1zM4 18h1v1h-1zM6 18h1v1h-1zM10 18h1v1h-1zM13 18h2v1h-2zM17 18h1v1h-1zM19 18h1v1h-1zM23 18h2v1h-2zM26 18h4v1h-4zM31 18h2v1h-2zM6 19h1v1h-1zM12 19h2v1h-2zM15 19h2v1h-2zM18 19h2v1h-2zM23 19h1v1h-1zM28 19h2v1h-2zM32 19h1v1h-1zM4 20h2v1h-2zM8 20h1v1h-1zM10 20h1v1h-1zM16 20h2v1h-2zM21 20h1v1h-1zM24 20h2v1h-2zM27 20h3v1h-3zM31 20h2v1h-2zM5 21h1v1h-1zM7 21h1v1h-1zM13 21h2v1h-2zM17 21h2v1h-2zM21 21h3v1h-3zM25 21h1v1h-1zM27 21h1v1h-1zM30 21h1v1h-1zM4 22h1v1h-1zM6 22h1v1h-1zM10 22h2v1h-2zM13 22h1v1h-1zM15 22h1v1h-1zM17 22h2v1h-2zM24 22h1v1h-1zM26 22h2v1h-2zM30 22h1v1h-1zM6 23h1v1h-1zM8 23h1v1h-1zM12 23h2v1h-2zM15 23h1v1h-1zM17 23h1v1h-1zM19 23h5v1h-5zM25 23h2v1h-2zM28 23h4v1h-4zM5 24h9v1h-9zM17 24h6v1h-6zM24 24h5v1h-5zM30 24h1v1h-1zM12 25h2v1h-2zM20 25h2v1h-2zM23 25h2v1h-2zM28 25h2v1h-2zM31 25h2v1h-2zM4 26h7v1h-7zM13 26h1v1h-1zM16 26h1v1h-1zM18 26h1v1h-1zM22 26h3v1h-3zM26 26h1v1h-1zM28 26h1v1h-1zM30 26h2v1h-2zM4 27h1v1h-1zM10 27h1v1h-1zM12 27h3v1h-3zM17 27h5v1h-5zM24 27h1v1h-1zM28 27h1v1h-1zM31 27h1v1h-1zM4 28h1v1h-1zM6 28h3v1h-3zM10 28h1v1h-1zM15 28h1v1h-1zM17 28h4v1h-4zM24 28h7v1h-7zM32 28h1v1h-1zM4 29h1v1h-1zM6 29h3v1h-3zM10 29h1v1h-1zM12 29h2v1h-2zM15 29h1v1h-1zM18 29h1v1h-1zM23 29h1v1h-1zM28 29h4v1h-4zM4 30h1v1h-1zM6 30h3v1h-3zM10 30h1v1h-1zM12 30h3v1h-3zM16 30h1v1h-1zM18 30h1v1h-1zM24 30h1v1h-1zM27 30h1v1h-1zM29 30h1v1h-1zM32 30h1v1h-1zM4 31h1v1h-1zM10 31h1v1h-1zM12 31h1v1h-1zM17 31h1v1h-1zM19 31h1v1h-1zM24 31h3v1h-3zM28 31h2v1h-2zM31 31h1v1h-1zM4 32h7v1h-7zM14 32h1v1h-1zM18 32h1v1h-1zM22 32h1v1h-1zM24 32h2v1h-2zM27 32h1v1h-1zM31 32h1v1h-1z" fill="#16222B"/>
</svg>
